<?xml version="1.0"?>
<svg width="600" height="600" xmlns="http://www.w3.org/2000/svg" xmlns:svg="http://www.w3.org/2000/svg">
 <!-- Created with SVG-edit - https://github.com/SVG-Edit/svgedit-->
 <g class="layer">
  <title>Layer 1</title>
  <path d="m22.861415,248.388324l-22.237062,20.730225m255.726217,-19.828911l21.310518,19.828911m-21.310518,-246.960069l21.310518,-21.631539m-254.799673,20.730225l-21.310518,-19.828911m21.310518,19.378254l233.489155,0l0,227.131158l-233.489155,0l0,-227.131158zm-21.77379,-21.180882l277.036735,0l0,269.492922l-277.036735,0l0,-269.492922z" fill="#ff0000" id="svg_17" stroke="#000000" stroke-dasharray="null" stroke-linecap="null" stroke-linejoin="null" stroke-width="5"/>
  <path d="m24.987056,522.391238l-22.237062,20.730225m255.726217,-19.828911l21.310518,19.828911m-21.310518,-246.960069l21.310518,-21.631539m-254.799673,20.730225l-21.310518,-19.828911m21.310518,19.378254l233.489155,0l0,227.131158l-233.489155,0l0,-227.131158zm-21.77379,-21.180882l277.036735,0l0,269.492922l-277.036735,0l0,-269.492922z" fill="#ff0000" id="svg_19" stroke="#000000" stroke-dasharray="null" stroke-linecap="null" stroke-linejoin="null" stroke-width="5"/>
  <path d="m306.237056,523.641223l-22.237062,20.730225m255.726217,-19.828911l21.310518,19.828911m-21.310518,-246.960069l21.310518,-21.631539m-254.799673,20.730225l-21.310518,-19.828911m21.310518,19.378254l233.489155,0l0,227.131158l-233.489155,0l0,-227.131158zm-21.77379,-21.180882l277.036735,0l0,269.492922l-277.036735,0l0,-269.492922z" fill="#ff0000" id="svg_20" stroke="#000000" stroke-dasharray="null" stroke-linecap="null" stroke-linejoin="null" stroke-width="5"/>
 </g>
</svg>