<?xml version="1.0"?>
<svg width="600" height="600" xmlns="http://www.w3.org/2000/svg" xmlns:svg="http://www.w3.org/2000/svg">
 <!-- Created with SVG-edit - https://github.com/SVG-Edit/svgedit-->
 <g class="layer">
  <title>Layer 1</title>
  <path d="m15.290494,158.715377l-13.42237,12.863104m154.357252,-12.303839l12.863104,12.303839m-12.863104,-153.238721l12.863104,-13.42237m-153.797987,12.863104l-12.863104,-12.303839m12.863104,12.024206l140.934882,0l0,140.934882l-140.934882,0l0,-140.934882zm-13.142737,-13.142737l167.220356,0l0,167.220356l-167.220356,0l0,-167.220356z" fill="#f6ff00" id="svg_8" stroke="#000000" stroke-dasharray="null" stroke-linecap="null" stroke-linejoin="null" stroke-width="5"/>
  <path d="m15.836591,330.01467l-13.42237,12.863104m154.357252,-12.303839l12.863104,12.303839m-12.863104,-153.238721l12.863104,-13.42237m-153.797987,12.863104l-12.863104,-12.303839m12.863104,12.024206l140.934882,0l0,140.934882l-140.934882,0l0,-140.934882zm-13.142737,-13.142737l167.220356,0l0,167.220356l-167.220356,0l0,-167.220356z" fill="#f6ff00" id="svg_9" stroke="#000000" stroke-dasharray="null" stroke-linecap="null" stroke-linejoin="null" stroke-width="5"/>
  <path d="m17.086439,501.24327l-13.42237,12.863104m154.357252,-12.303839l12.863104,12.303839m-12.863104,-153.238721l12.863104,-13.42237m-153.797987,12.863104l-12.863104,-12.303839m12.863104,12.024206l140.934882,0l0,140.934882l-140.934882,0l0,-140.934882zm-13.142737,-13.142737l167.220356,0l0,167.220356l-167.220356,0l0,-167.220356z" fill="#f6ff00" id="svg_11" stroke="#000000" stroke-dasharray="null" stroke-linecap="null" stroke-linejoin="null" stroke-width="5"/>
  <path d="m188.315038,502.49311l-13.42237,12.863104m154.357252,-12.303839l12.863104,12.303839m-12.863104,-153.238721l12.863104,-13.42237m-153.797987,12.863104l-12.863104,-12.303839m12.863104,12.024206l140.934882,0l0,140.934882l-140.934882,0l0,-140.934882zm-13.142737,-13.142737l167.220356,0l0,167.220356l-167.220356,0l0,-167.220356z" fill="#f6ff00" id="svg_12" stroke="#000000" stroke-dasharray="null" stroke-linecap="null" stroke-linejoin="null" stroke-width="5"/>
  <path d="m358.29379,502.49311l-13.42237,12.863104m154.357252,-12.303839l12.863104,12.303839m-12.863104,-153.238721l12.863104,-13.42237m-153.797987,12.863104l-12.863104,-12.303839m12.863104,12.024206l140.934882,0l0,140.934882l-140.934882,0l0,-140.934882zm-13.142737,-13.142737l167.220356,0l0,167.220356l-167.220356,0l0,-167.220356z" fill="#f6ff00" id="svg_13" stroke="#000000" stroke-dasharray="null" stroke-linecap="null" stroke-linejoin="null" stroke-width="5"/>
 </g>
</svg>