<?xml version="1.0"?>
<svg width="600" height="600" xmlns="http://www.w3.org/2000/svg" xmlns:svg="http://www.w3.org/2000/svg">
 <!-- Created with SVG-edit - https://github.com/SVG-Edit/svgedit-->
 <g class="layer">
  <title>Layer 1</title>
  <path d="m56.535341,277.450538l-13.42237,12.863104m154.357252,-12.303839l12.863104,12.303839m-12.863104,-153.238721l12.863104,-13.42237m-153.797987,12.863104l-12.863104,-12.303839m12.863104,12.024206l140.934882,0l0,140.934882l-140.934882,0l0,-140.934882zm-13.142737,-13.142737l167.220356,0l0,167.220356l-167.220356,0l0,-167.220356z" fill="#00ffe1" id="svg_8" stroke="#000000" stroke-dasharray="null" stroke-linecap="null" stroke-linejoin="null" stroke-width="5"/>
  <path d="m228.310041,277.521228l-13.42237,12.863104m154.357252,-12.303839l12.863104,12.303839m-12.863104,-153.238721l12.863104,-13.42237m-153.797987,12.863104l-12.863104,-12.303839m12.863104,12.024206l140.934882,0l0,140.934882l-140.934882,0l0,-140.934882zm-13.142737,-13.142737l167.220356,0l0,167.220356l-167.220356,0l0,-167.220356z" fill="#00ffe1" id="svg_14" stroke="#000000" stroke-dasharray="null" stroke-linecap="null" stroke-linejoin="null" stroke-width="5"/>
  <path d="m398.288796,277.521228l-13.42237,12.863104m154.357252,-12.303839l12.863104,12.303839m-12.863104,-153.238721l12.863104,-13.42237m-153.797987,12.863104l-12.863104,-12.303839m12.863104,12.024206l140.934882,0l0,140.934882l-140.934882,0l0,-140.934882zm-13.142737,-13.142737l167.220356,0l0,167.220356l-167.220356,0l0,-167.220356z" fill="#00ffe1" id="svg_15" stroke="#000000" stroke-dasharray="null" stroke-linecap="null" stroke-linejoin="null" stroke-width="5"/>
  <path d="m233.309419,449.999668l-13.42237,12.863104m154.357252,-12.303839l12.863104,12.303839m-12.863104,-153.238721l12.863104,-13.42237m-153.797987,12.863104l-12.863104,-12.303839m12.863104,12.024206l140.934882,0l0,140.934882l-140.934882,0l0,-140.934882zm-13.142737,-13.142737l167.220356,0l0,167.220356l-167.220356,0l0,-167.220356z" fill="#00ffe1" id="svg_16" stroke="#000000" stroke-dasharray="null" stroke-linecap="null" stroke-linejoin="null" stroke-width="5"/>
 </g>
</svg>