<?xml version="1.0"?>
<svg width="600" height="600" xmlns="http://www.w3.org/2000/svg" xmlns:svg="http://www.w3.org/2000/svg">
 <!-- Created with SVG-edit - https://github.com/SVG-Edit/svgedit-->
 <g class="layer">
  <title>Layer 1</title>
  <path d="m15.891488,168.904009l-14.023373,13.723674m161.268788,-13.126992l13.439066,13.126992m-13.439066,-163.490724l13.439066,-14.320355m-160.684481,13.723674l-13.439066,-13.126992m13.439066,12.828652l147.245415,0l0,150.363731l-147.245415,0l0,-150.363731zm-13.731219,-14.022015l174.707854,0l0,178.407761l-174.707854,0l0,-178.407761z" fill="#1dff00" id="svg_1" stroke="#000000" stroke-width="5"/>
  <path d="m16.662256,349.091311l-14.023373,13.723674m161.268788,-13.126992l13.439066,13.126992m-13.439066,-163.490724l13.439066,-14.320355m-160.684481,13.723674l-13.439066,-13.126992m13.439066,12.828652l147.245415,0l0,150.363731l-147.245415,0l0,-150.363731zm-13.731219,-14.022015l174.707854,0l0,178.407761l-174.707854,0l0,-178.407761z" fill="#1dff00" id="svg_5" stroke="#000000" stroke-width="5"/>
  <path d="m16.662256,532.841311l-14.023373,13.723674m161.268788,-13.126992l13.439066,13.126992m-13.439066,-163.490724l13.439066,-14.320355m-160.684481,13.723674l-13.439066,-13.126992m13.439066,12.828652l147.245415,0l0,150.363731l-147.245415,0l0,-150.363731zm-13.731219,-14.022015l174.707854,0l0,178.407761l-174.707854,0l0,-178.407761z" fill="#1dff00" id="svg_6" stroke="#000000" stroke-width="5"/>
  <path d="m195.412256,532.841311l-14.023373,13.723674m161.268788,-13.126992l13.439066,13.126992m-13.439066,-163.490724l13.439066,-14.320355m-160.684481,13.723674l-13.439066,-13.126992m13.439066,12.828652l147.245415,0l0,150.363731l-147.245415,0l0,-150.363731zm-13.731219,-14.022015l174.707854,0l0,178.407761l-174.707854,0l0,-178.407761z" fill="#1dff00" id="svg_7" stroke="#000000" stroke-width="5"/>
 </g>
</svg>