<?xml version="1.0"?>
<svg width="600" height="600" xmlns="http://www.w3.org/2000/svg" xmlns:svg="http://www.w3.org/2000/svg">
 <!-- Created with SVG-edit - https://github.com/SVG-Edit/svgedit-->
 <g class="layer">
  <title>Layer 1</title>
  <path d="m19.452599,375.868601l-14.849499,14.23077m170.769242,-13.612041l14.23077,13.612041m-14.23077,-169.531784l14.23077,-14.849499m-170.150513,14.23077l-14.23077,-13.612041m14.23077,13.302676l155.919743,0l0,155.919743l-155.919743,0l0,-155.919743zm-14.540135,-14.540135l185.000013,0l0,185.000013l-185.000013,0l0,-185.000013z" fill="#0000ff" id="svg_6" stroke="#000000" stroke-dasharray="null" stroke-linecap="null" stroke-linejoin="null" stroke-width="5"/>
  <path d="m208.694817,375.644251l-14.849499,14.23077m170.769242,-13.612041l14.23077,13.612041m-14.23077,-169.531784l14.23077,-14.849499m-170.150513,14.23077l-14.23077,-13.612041m14.23077,13.302676l155.919743,0l0,155.919743l-155.919743,0l0,-155.919743zm-14.540135,-14.540135l185.000013,0l0,185.000013l-185.000013,0l0,-185.000013z" fill="#0000ff" id="svg_7" stroke="#000000" stroke-dasharray="null" stroke-linecap="null" stroke-linejoin="null" stroke-width="5"/>
  <path d="m398.694817,375.644251l-14.849499,14.23077m170.769242,-13.612041l14.23077,13.612041m-14.23077,-169.531784l14.23077,-14.849499m-170.150513,14.23077l-14.23077,-13.612041m14.23077,13.302676l155.919743,0l0,155.919743l-155.919743,0l0,-155.919743zm-14.540135,-14.540135l185.000013,0l0,185.000013l-185.000013,0l0,-185.000013z" fill="#0000ff" id="svg_10" stroke="#000000" stroke-dasharray="null" stroke-linecap="null" stroke-linejoin="null" stroke-width="5"/>
 </g>
</svg>