<?xml version="1.0"?>
<svg width="640" height="480" xmlns="http://www.w3.org/2000/svg" xmlns:svg="http://www.w3.org/2000/svg">
 <!-- Created with SVG-edit - https://github.com/SVG-Edit/svgedit-->
 <g class="layer">
  <title>Layer 1</title>
  <path d="m12.815919,145.969775l-12.677379,12.149155m145.789857,-11.620931l12.149155,11.620931m-12.149155,-144.733409l12.149155,-12.677379m-145.261633,12.149155l-12.149155,-11.620931m12.149155,11.356819l133.112478,0l0,133.112478l-133.112478,0l0,-133.112478zm-12.413267,-12.413267l157.939012,0l0,157.939012l-157.939012,0l0,-157.939012z" fill="#ffffff" id="svg_13" stroke="#000000" stroke-dasharray="null" stroke-linecap="null" stroke-linejoin="null" stroke-width="5"/>
  <path d="m393.294832,268.293285l-0.078386,0.07512m0.901439,-0.071854l0.07512,0.071854m-0.07512,-0.894907l0.07512,-0.078386m-0.898173,0.07512l-0.07512,-0.071854m0.07512,0.070221l0.823053,0l0,0.823053l-0.823053,0l0,-0.823053zm-0.076753,-0.076753l0.976559,0l0,0.976559l-0.976559,0l0,-0.976559z" fill="#ffffff" id="svg_15" stroke="#000000" stroke-dasharray="null" stroke-linecap="null" stroke-linejoin="null" stroke-width="5"/>
  <path d="m283.495,264.406574l-0.078387,0.075121m0.901446,-0.071854l0.075121,0.071854m-0.075121,-0.894914l0.075121,-0.078387m-0.89818,0.075121l-0.075121,-0.071854m0.075121,0.070221l0.823059,0l0,0.823059l-0.823059,0l0,-0.823059zm-0.076754,-0.076754l0.976567,0l0,0.976567l-0.976567,0l0,-0.976567z" fill="#ffffff" id="svg_16" stroke="#000000" stroke-dasharray="null" stroke-linecap="null" stroke-linejoin="null" stroke-width="5"/>
  <path d="m13.302384,306.253939l-12.677379,12.149155m145.789857,-11.620931l12.149155,11.620931m-12.149155,-144.733409l12.149155,-12.677379m-145.261633,12.149155l-12.149155,-11.620931m12.149155,11.356819l133.112478,0l0,133.112478l-133.112478,0l0,-133.112478zm-12.413267,-12.413267l157.939012,0l0,157.939012l-157.939012,0l0,-157.939012z" fill="#ffffff" id="svg_17" stroke="#000000" stroke-dasharray="null" stroke-linecap="null" stroke-linejoin="null" stroke-width="5"/>
  <path d="m14.278947,466.410189l-12.677379,12.149155m145.789857,-11.620931l12.149155,11.620931m-12.149155,-144.733409l12.149155,-12.677379m-145.261633,12.149155l-12.149155,-11.620931m12.149155,11.356819l133.112478,0l0,133.112478l-133.112478,0l0,-133.112478zm-12.413267,-12.413267l157.939012,0l0,157.939012l-157.939012,0l0,-157.939012z" fill="#ffffff" id="svg_18" stroke="#000000" stroke-dasharray="null" stroke-linecap="null" stroke-linejoin="null" stroke-width="5"/>
  <path d="m177.364884,466.410189l-12.677379,12.149155m145.789857,-11.620931l12.149155,11.620931m-12.149155,-144.733409l12.149155,-12.677379m-145.261633,12.149155l-12.149155,-11.620931m12.149155,11.356819l133.112478,0l0,133.112478l-133.112478,0l0,-133.112478zm-12.413267,-12.413267l157.939012,0l0,157.939012l-157.939012,0l0,-157.939012z" fill="#ffffff" id="svg_19" stroke="#000000" stroke-dasharray="null" stroke-linecap="null" stroke-linejoin="null" stroke-width="5"/>
  <path d="m176.388322,305.277377l-12.677379,12.149155m145.789857,-11.620931l12.149155,11.620931m-12.149155,-144.733409l12.149155,-12.677379m-145.261633,12.149155l-12.149155,-11.620931m12.149155,11.356819l133.112478,0l0,133.112478l-133.112478,0l0,-133.112478zm-12.413267,-12.413267l157.939012,0l0,157.939012l-157.939012,0l0,-157.939012z" fill="#ffffff" id="svg_20" stroke="#000000" stroke-dasharray="null" stroke-linecap="null" stroke-linejoin="null" stroke-width="5"/>
  <path d="m339.474259,467.386752l-12.677379,12.149155m145.789857,-11.620931l12.149155,11.620931m-12.149155,-144.733409l12.149155,-12.677379m-145.261633,12.149155l-12.149155,-11.620931m12.149155,11.356819l133.112478,0l0,133.112478l-133.112478,0l0,-133.112478zm-12.413267,-12.413267l157.939012,0l0,157.939012l-157.939012,0l0,-157.939012z" fill="#ffffff" id="svg_21" stroke="#000000" stroke-dasharray="null" stroke-linecap="null" stroke-linejoin="null" stroke-width="5"/>
 </g>
</svg>