<svg xmlns="http://www.w3.org/2000/svg"  viewBox="0 0 100 100" width="100px" height="100px"><g><path fill="#c7ede6" d="M88.543,56.005c0.3-0.616,0.566-1.264,0.796-1.943c2.633-7.77-1.349-17.078-9.733-19.325C78.7,23.354,70.7,15.545,61.665,14.212C51.325,12.687,41.851,19.257,38.7,29.698c-3.799-1.346-7.501-1.182-10.99,0.857c-1.583,0.732-3.031,1.812-4.33,3.233c-1.907,2.086-3.147,4.719-3.652,7.495c-0.748,0.118-1.483,0.236-2.176,0.484c-4.04,1.449-6.589,4.431-7.288,8.923c-0.435,2.797,0.443,5.587,0.933,6.714c1.935,4.455,6.422,6.98,10.981,6.312c0.227-0.033,0.557,0.069,0.752,0.233c0.241,7.12,3.698,13.417,8.884,17.014c8.321,5.772,19.027,3.994,25.781-3.921c2.894,2.96,6.338,4.398,10.384,3.876c4.023-0.519,7.147-2.739,9.426-6.349c1.053,0.283,2.051,0.691,3.083,0.804c4.042,0.442,7.324-1.165,9.732-4.8c0.922-1.391,1.793-3.194,1.793-6.354C92.014,60.962,90.72,57.995,88.543,56.005z"/><path fill="#fdfcef" d="M76.108,50.93c0,0,11.691,0,11.762,0c2.7,0,4.888-2.189,4.888-4.889c0-2.355-1.666-4.321-3.884-4.784c0.026-0.206,0.043-0.415,0.043-0.628c0-2.796-2.267-5.063-5.063-5.063c-1.651,0-3.113,0.794-4.037,2.017c-0.236-3.113-3.017-5.514-6.27-5.116c-2.379,0.291-4.346,2.13-4.784,4.486c-0.14,0.756-0.126,1.489,0.014,2.177c-0.638-0.687-1.546-1.119-2.557-1.119c-1.85,0-3.361,1.441-3.48,3.261c-0.84-0.186-1.754-0.174-2.717,0.188c-1.84,0.691-3.15,2.423-3.227,4.387c-0.109,2.789,2.12,5.085,4.885,5.085c0.21,0,0.948,0,1.118,0h10.151"/><path fill="#472b29" d="M87.87,51.43H76.108c-0.276,0-0.5-0.224-0.5-0.5s0.224-0.5,0.5-0.5H87.87c2.419,0,4.388-1.969,4.388-4.389c0-2.067-1.466-3.873-3.486-4.295c-0.255-0.053-0.426-0.293-0.394-0.552c0.023-0.186,0.039-0.373,0.039-0.565c0-2.516-2.047-4.563-4.563-4.563c-1.439,0-2.765,0.663-3.638,1.818c-0.125,0.166-0.341,0.237-0.54,0.179c-0.2-0.059-0.342-0.235-0.358-0.442c-0.104-1.377-0.779-2.671-1.85-3.549c-1.083-0.887-2.452-1.282-3.861-1.109c-2.166,0.265-3.956,1.943-4.353,4.081c-0.124,0.668-0.12,1.336,0.012,1.986c0.045,0.219-0.062,0.442-0.261,0.544c-0.2,0.102-0.442,0.06-0.595-0.104c-0.574-0.619-1.352-0.959-2.19-0.959c-1.569,0-2.878,1.227-2.981,2.793c-0.01,0.146-0.082,0.28-0.199,0.367c-0.117,0.087-0.268,0.118-0.408,0.088c-0.84-0.186-1.637-0.131-2.433,0.167c-1.669,0.626-2.836,2.209-2.903,3.938c-0.047,1.207,0.387,2.35,1.222,3.218c0.835,0.869,1.959,1.347,3.164,1.347h11.269c0.276,0,0.5,0.224,0.5,0.5s-0.224,0.5-0.5,0.5H61.683c-1.479,0-2.858-0.587-3.884-1.654c-1.025-1.066-1.558-2.469-1.5-3.95c0.083-2.126,1.51-4.069,3.551-4.836c0.8-0.3,1.627-0.4,2.468-0.298c0.376-1.823,1.997-3.182,3.905-3.182c0.684,0,1.354,0.179,1.944,0.51c0-0.385,0.035-0.772,0.107-1.159c0.476-2.562,2.62-4.573,5.215-4.891c1.677-0.205,3.32,0.266,4.616,1.328c1.004,0.823,1.716,1.951,2.038,3.193c1.012-0.916,2.319-1.425,3.713-1.425c3.067,0,5.563,2.496,5.563,5.563c0,0.083-0.002,0.166-0.007,0.249c2.254,0.673,3.848,2.777,3.848,5.164C93.258,49.012,90.841,51.43,87.87,51.43z"/><path fill="#fdfcef" d="M73.275,40.161c-1.808-0.119-3.365,1.13-3.476,2.789c-0.014,0.206-0.005,0.409,0.025,0.606c-0.349-0.394-0.865-0.661-1.458-0.7c-1.085-0.071-2.022,0.645-2.158,1.62c-0.197-0.054-0.403-0.09-0.616-0.104c-1.582-0.104-2.944,0.989-3.042,2.441"/><path fill="#472b29" d="M62.551,47.062c-0.006,0-0.012,0-0.017,0c-0.138-0.009-0.242-0.128-0.233-0.266c0.106-1.586,1.587-2.786,3.308-2.674c0.136,0.009,0.272,0.027,0.409,0.053c0.274-0.968,1.264-1.642,2.366-1.568c0.425,0.028,0.823,0.161,1.163,0.382c0.001-0.019,0.002-0.037,0.003-0.056c0.121-1.793,1.8-3.141,3.742-3.022c0.138,0.009,0.242,0.128,0.233,0.266c-0.009,0.137-0.124,0.244-0.266,0.233c-1.671-0.108-3.108,1.038-3.21,2.557c-0.013,0.184-0.005,0.37,0.023,0.551c0.017,0.11-0.041,0.217-0.141,0.265c-0.099,0.046-0.219,0.023-0.293-0.061c-0.318-0.359-0.787-0.584-1.288-0.617c-0.939-0.066-1.775,0.555-1.894,1.405c-0.01,0.071-0.05,0.134-0.11,0.174c-0.061,0.04-0.134,0.052-0.204,0.033c-0.188-0.051-0.379-0.084-0.567-0.096c-1.431-0.094-2.687,0.896-2.776,2.208C62.791,46.961,62.681,47.062,62.551,47.062z"/><path fill="#fdfcef" d="M89.849,41.829c-1.699-0.801-3.664-0.234-4.389,1.267c-0.09,0.186-0.157,0.379-0.201,0.574"/><path fill="#472b29" d="M85.26,43.919c-0.018,0-0.037-0.002-0.056-0.006c-0.135-0.031-0.219-0.165-0.188-0.299c0.049-0.215,0.123-0.426,0.219-0.626c0.783-1.622,2.901-2.242,4.721-1.384c0.125,0.059,0.179,0.208,0.12,0.333c-0.059,0.126-0.21,0.178-0.333,0.12c-1.573-0.741-3.394-0.226-4.058,1.149c-0.08,0.166-0.141,0.341-0.182,0.52C85.477,43.841,85.374,43.919,85.26,43.919z"/><g><path fill="#fff" d="M18.208 48.041H8.178c-.276 0-.5-.224-.5-.5s.224-.5.5-.5h10.03c.276 0 .5.224.5.5S18.485 48.041 18.208 48.041zM21.09 48.041h-1.446c-.276 0-.5-.224-.5-.5s.224-.5.5-.5h1.446c.276 0 .5.224.5.5S21.366 48.041 21.09 48.041zM25.145 48.041h-2.546c-.276 0-.5-.224-.5-.5s.224-.5.5-.5h2.546c.276 0 .5.224.5.5S25.421 48.041 25.145 48.041zM25.145 49.906h-9.617c-.276 0-.5-.224-.5-.5s.224-.5.5-.5h9.617c.276 0 .5.224.5.5S25.421 49.906 25.145 49.906zM13.796 49.906h-.58c-.276 0-.5-.224-.5-.5s.224-.5.5-.5h.58c.276 0 .5.224.5.5S14.073 49.906 13.796 49.906zM11.42 49.906H9.963c-.276 0-.5-.224-.5-.5s.224-.5.5-.5h1.457c.276 0 .5.224.5.5S11.696 49.906 11.42 49.906zM20.556 46.176h-5.028c-.276 0-.5-.224-.5-.5s.224-.5.5-.5h5.028c.276 0 .5.224.5.5S20.832 46.176 20.556 46.176zM20.556 44.312h-1.257c-.276 0-.5-.224-.5-.5s.224-.5.5-.5h1.257c.276 0 .5.224.5.5S20.832 44.312 20.556 44.312zM17.287 51.771h-1.759c-.276 0-.5-.224-.5-.5s.224-.5.5-.5h1.759c.276 0 .5.224.5.5S17.563 51.771 17.287 51.771z"/></g><g><path fill="#fff" d="M71.387 21.764H61.356c-.276 0-.5-.224-.5-.5s.224-.5.5-.5h10.031c.276 0 .5.224.5.5S71.663 21.764 71.387 21.764zM74.268 21.764h-1.446c-.276 0-.5-.224-.5-.5s.224-.5.5-.5h1.446c.276 0 .5.224.5.5S74.544 21.764 74.268 21.764zM78.322 21.764h-2.546c-.276 0-.5-.224-.5-.5s.224-.5.5-.5h2.546c.276 0 .5.224.5.5S78.599 21.764 78.322 21.764zM76.296 18.035H66.68c-.276 0-.5-.224-.5-.5s.224-.5.5-.5h9.616c.276 0 .5.224.5.5S76.573 18.035 76.296 18.035zM64.949 18.035h-.58c-.276 0-.5-.224-.5-.5s.224-.5.5-.5h.58c.276 0 .5.224.5.5S65.225 18.035 64.949 18.035zM62.572 18.035h-1.456c-.276 0-.5-.224-.5-.5s.224-.5.5-.5h1.456c.276 0 .5.224.5.5S62.848 18.035 62.572 18.035zM73.733 19.899h-5.027c-.276 0-.5-.224-.5-.5s.224-.5.5-.5h5.027c.276 0 .5.224.5.5S74.01 19.899 73.733 19.899z"/><path fill="#fff" d="M73.733 18.035h-1.257c-.276 0-.5-.224-.5-.5s.224-.5.5-.5h1.257c.276 0 .5.224.5.5S74.01 18.035 73.733 18.035zM67.25 19.899h-1.758c-.276 0-.5-.224-.5-.5s.224-.5.5-.5h1.758c.276 0 .5.224.5.5S67.527 19.899 67.25 19.899z"/></g><g><path fill="#28b3ea" d="M66.258,75.583H36.544c-3.766,0-6.847-3.081-6.847-6.847V39.023c0-3.766,3.081-6.847,6.847-6.847h29.713c3.766,0,6.847,3.081,6.847,6.847v29.713C73.105,72.502,70.024,75.583,66.258,75.583z"/><path fill="#472b29" d="M66.257,76.284H36.544c-4.162,0-7.547-3.386-7.547-7.547V39.023c0-4.162,3.386-7.547,7.547-7.547h29.713c4.162,0,7.548,3.386,7.548,7.547v29.713C73.805,72.898,70.419,76.284,66.257,76.284z M36.544,32.876c-3.39,0-6.147,2.757-6.147,6.147v29.713c0,3.39,2.757,6.147,6.147,6.147h29.713c3.39,0,6.147-2.757,6.147-6.147V39.023c0-3.39-2.758-6.147-6.147-6.147H36.544z"/><path fill="#472b29" d="M64.35 72.833H38.452c-3.311 0-6.004-2.693-6.004-6.004V40.931c0-3.311 2.693-6.004 6.004-6.004h24.663c.193 0 .35.157.35.35s-.157.35-.35.35H38.452c-2.924 0-5.304 2.379-5.304 5.304v25.898c0 2.924 2.379 5.304 5.304 5.304H64.35c2.925 0 5.304-2.379 5.304-5.304V52.501c0-.193.157-.35.35-.35s.35.157.35.35v14.328C70.354 70.14 67.661 72.833 64.35 72.833zM70.004 50.785c-.193 0-.35-.157-.35-.35v-2.756c0-.193.157-.35.35-.35s.35.157.35.35v2.756C70.354 50.628 70.198 50.785 70.004 50.785z"/><g><path fill="#472b29" d="M70.004,46.651c-0.193,0-0.35-0.157-0.35-0.35v-1.378c0-0.193,0.157-0.35,0.35-0.35s0.35,0.157,0.35,0.35v1.378C70.354,46.494,70.198,46.651,70.004,46.651z"/></g><g><path fill="#fdfcee" d="M52.006,50.332c0,0.794-0.174,1.509-0.521,2.146c-0.347,0.637-0.831,1.178-1.451,1.624c-0.62,0.447-1.352,0.79-2.195,1.029c-0.843,0.24-1.753,0.36-2.728,0.36h-1.141v6.523h-2.282V45.496h3.993c0.893,0,1.724,0.099,2.493,0.297c0.769,0.198,1.439,0.501,2.009,0.905c0.571,0.406,1.017,0.91,1.339,1.513C51.845,48.816,52.006,49.522,52.006,50.332z M49.724,50.307c0-0.546-0.108-1.005-0.322-1.377c-0.215-0.372-0.509-0.678-0.881-0.918c-0.372-0.24-0.81-0.413-1.314-0.521c-0.505-0.107-1.038-0.161-1.6-0.161h-1.637v6.325h1.216c0.661,0,1.269-0.075,1.823-0.223c0.554-0.149,1.033-0.368,1.439-0.657c0.405-0.289,0.719-0.641,0.943-1.054C49.612,51.308,49.724,50.837,49.724,50.307z"/><path fill="#472b29" d="M43.969,62.315h-2.282c-0.166,0-0.3-0.134-0.3-0.3V45.496c0-0.166,0.134-0.3,0.3-0.3h3.993c0.916,0,1.78,0.103,2.568,0.307c0.799,0.206,1.508,0.526,2.107,0.951c0.607,0.431,1.088,0.975,1.431,1.617c0.345,0.645,0.519,1.406,0.519,2.262c0,0.841-0.188,1.612-0.557,2.289c-0.368,0.674-0.886,1.254-1.539,1.725c-0.646,0.465-1.416,0.827-2.289,1.074c-0.865,0.247-1.811,0.371-2.811,0.371h-0.841v6.224C44.269,62.181,44.135,62.315,43.969,62.315z M41.987,61.715h1.682v-6.224c0-0.166,0.134-0.3,0.3-0.3h1.141c0.944,0,1.835-0.117,2.646-0.349c0.806-0.229,1.513-0.56,2.102-0.984c0.58-0.417,1.039-0.93,1.363-1.524c0.321-0.588,0.484-1.262,0.484-2.002c0-0.756-0.151-1.422-0.449-1.98c-0.298-0.559-0.718-1.033-1.249-1.41c-0.539-0.382-1.182-0.671-1.91-0.859c-0.739-0.191-1.553-0.288-2.418-0.288h-3.693V61.715z M45.185,53.956h-1.215c-0.166,0-0.3-0.134-0.3-0.3v-6.325c0-0.166,0.134-0.3,0.3-0.3h1.637c0.579,0,1.139,0.056,1.662,0.167c0.539,0.115,1.015,0.305,1.415,0.562c0.412,0.266,0.74,0.608,0.978,1.02c0.241,0.417,0.363,0.931,0.363,1.527c0,0.577-0.125,1.101-0.371,1.556c-0.244,0.452-0.592,0.841-1.033,1.156c-0.433,0.309-0.949,0.546-1.535,0.703C46.507,53.878,45.868,53.956,45.185,53.956z M44.269,53.356h0.916c0.631,0,1.218-0.072,1.746-0.213c0.516-0.139,0.968-0.345,1.342-0.612c0.366-0.261,0.653-0.582,0.853-0.953c0.199-0.367,0.299-0.795,0.299-1.271c0-0.489-0.095-0.902-0.283-1.227c-0.192-0.332-0.448-0.599-0.783-0.815c-0.339-0.218-0.748-0.379-1.215-0.479c-0.482-0.102-1-0.154-1.537-0.154h-1.337V53.356z"/><g><path fill="#fdfcee" d="M61.115,58.617c0,0.562-0.12,1.066-0.36,1.513c-0.24,0.447-0.571,0.828-0.992,1.141c-0.422,0.314-0.922,0.558-1.501,0.732c-0.579,0.174-1.207,0.26-1.885,0.26c-0.298,0-0.612-0.017-0.943-0.05c-0.331-0.034-0.661-0.083-0.992-0.149c-0.331-0.066-0.649-0.145-0.955-0.236c-0.306-0.091-0.567-0.186-0.781-0.285l0.372-1.762c0.43,0.182,0.921,0.347,1.476,0.497c0.554,0.149,1.17,0.223,1.848,0.223c0.711,0,1.31-0.128,1.798-0.384c0.487-0.256,0.732-0.665,0.732-1.228c0-0.264-0.066-0.5-0.198-0.707c-0.133-0.207-0.306-0.389-0.521-0.546c-0.215-0.157-0.468-0.302-0.757-0.435c-0.29-0.132-0.591-0.264-0.905-0.396c-0.43-0.166-0.86-0.351-1.29-0.558c-0.43-0.207-0.823-0.455-1.178-0.744c-0.356-0.289-0.645-0.624-0.868-1.005c-0.223-0.38-0.335-0.834-0.335-1.364c0-0.579,0.12-1.075,0.36-1.488c0.24-0.413,0.554-0.752,0.943-1.017c0.388-0.264,0.839-0.459,1.352-0.583c0.512-0.124,1.042-0.186,1.588-0.186c0.628,0,1.24,0.07,1.835,0.211c0.595,0.141,1.133,0.335,1.613,0.583l-0.372,1.687c-0.48-0.231-0.98-0.409-1.501-0.534c-0.521-0.124-1.046-0.186-1.575-0.186c-0.579,0-1.067,0.099-1.463,0.297c-0.397,0.198-0.595,0.563-0.595,1.091c0,0.248,0.07,0.459,0.211,0.632c0.14,0.174,0.322,0.331,0.546,0.472c0.223,0.141,0.467,0.269,0.732,0.384c0.264,0.116,0.512,0.232,0.744,0.347c0.215,0.1,0.537,0.24,0.967,0.422c0.43,0.182,0.856,0.418,1.277,0.707s0.79,0.649,1.104,1.079C60.957,57.485,61.115,58.006,61.115,58.617z"/><path fill="#472b29" d="M56.377,62.563c-0.307,0-0.631-0.017-0.972-0.051c-0.341-0.035-0.681-0.085-1.021-0.153c-0.34-0.068-0.667-0.149-0.982-0.242c-0.313-0.093-0.59-0.194-0.821-0.3c-0.127-0.058-0.197-0.197-0.168-0.334l0.372-1.762c0.019-0.088,0.075-0.163,0.155-0.204c0.079-0.042,0.173-0.046,0.256-0.01c0.414,0.175,0.897,0.338,1.437,0.483c0.525,0.141,1.121,0.212,1.77,0.212c0.659,0,1.217-0.118,1.659-0.35c0.39-0.205,0.572-0.511,0.572-0.962c0-0.208-0.05-0.386-0.151-0.545c-0.112-0.174-0.262-0.331-0.445-0.465c-0.197-0.144-0.434-0.28-0.705-0.404c-0.286-0.13-0.585-0.262-0.897-0.393c-0.432-0.166-0.874-0.357-1.304-0.565c-0.449-0.215-0.865-0.479-1.237-0.782c-0.38-0.308-0.696-0.673-0.938-1.085c-0.25-0.426-0.376-0.936-0.376-1.516c0-0.63,0.134-1.182,0.4-1.639c0.261-0.451,0.609-0.826,1.033-1.115c0.419-0.284,0.907-0.495,1.45-0.626c1.146-0.277,2.415-0.247,3.562,0.024c0.614,0.145,1.18,0.35,1.681,0.608c0.121,0.062,0.185,0.198,0.155,0.331l-0.372,1.687c-0.02,0.09-0.08,0.166-0.162,0.206c-0.082,0.04-0.179,0.041-0.261,0c-0.456-0.22-0.94-0.392-1.44-0.511c-1.016-0.242-2.145-0.256-2.835,0.088c-0.184,0.092-0.429,0.278-0.429,0.823c0,0.179,0.047,0.324,0.145,0.444c0.119,0.147,0.278,0.284,0.472,0.406c0.21,0.133,0.443,0.255,0.691,0.363c0.27,0.118,0.522,0.236,0.758,0.354c0.206,0.095,0.525,0.234,0.951,0.414c0.447,0.189,0.895,0.437,1.331,0.736c0.448,0.308,0.844,0.694,1.176,1.149c0.351,0.482,0.529,1.067,0.529,1.74c0,0.609-0.133,1.166-0.396,1.655c-0.26,0.484-0.622,0.901-1.077,1.24c-0.448,0.334-0.984,0.596-1.594,0.779C57.744,62.472,57.081,62.563,56.377,62.563z M53.051,61.365c0.156,0.061,0.331,0.121,0.522,0.177c0.297,0.088,0.606,0.165,0.928,0.229c0.321,0.064,0.643,0.112,0.964,0.145c1.035,0.102,1.918,0.038,2.711-0.2c0.542-0.163,1.016-0.393,1.408-0.686c0.383-0.285,0.688-0.636,0.907-1.042c0.215-0.4,0.324-0.861,0.324-1.371c0-0.551-0.135-1.004-0.414-1.386c-0.292-0.399-0.64-0.739-1.032-1.008c-0.402-0.276-0.814-0.504-1.225-0.678c-0.434-0.184-0.759-0.326-0.976-0.426c-0.235-0.117-0.479-0.23-0.739-0.344c-0.275-0.12-0.535-0.256-0.771-0.405c-0.25-0.158-0.458-0.338-0.619-0.537c-0.184-0.228-0.277-0.504-0.277-0.821c0-0.809,0.414-1.187,0.761-1.36c0.824-0.412,2.088-0.41,3.242-0.135c0.418,0.1,0.826,0.234,1.218,0.399l0.242-1.095c-0.405-0.189-0.854-0.342-1.337-0.457c-1.058-0.249-2.229-0.279-3.284-0.025c-0.473,0.115-0.895,0.296-1.253,0.54c-0.349,0.238-0.636,0.547-0.852,0.919c-0.212,0.365-0.319,0.815-0.319,1.338c0,0.472,0.099,0.88,0.294,1.212c0.205,0.35,0.474,0.66,0.798,0.923c0.336,0.274,0.712,0.511,1.119,0.707c0.416,0.201,0.842,0.385,1.268,0.549c0.325,0.137,0.629,0.271,0.922,0.403c0.308,0.141,0.581,0.297,0.81,0.465c0.244,0.178,0.444,0.389,0.596,0.626c0.164,0.255,0.246,0.547,0.246,0.868c0,0.67-0.309,1.187-0.892,1.494c-0.529,0.278-1.181,0.418-1.938,0.418c-0.701,0-1.349-0.078-1.925-0.233c-0.427-0.115-0.822-0.241-1.179-0.375L53.051,61.365z"/></g></g></g><g><path fill="#fdfcef" d="M41.303,77.534c1.883,0,3.517,0,3.54,0c2.11,0,3.821-1.674,3.821-3.739c0-1.802-1.302-3.305-3.035-3.66c0.02-0.158,0.034-0.317,0.034-0.48c0-2.139-1.772-3.873-3.957-3.873c-1.29,0-2.433,0.607-3.155,1.543c-0.185-2.381-2.358-4.218-4.9-3.913c-1.859,0.223-3.397,1.629-3.739,3.431c-0.11,0.578-0.098,1.139,0.011,1.665c-0.498-0.525-1.208-0.856-1.998-0.856c-1.446,0-2.627,1.102-2.72,2.494c-0.657-0.142-1.371-0.133-2.123,0.143c-1.438,0.528-2.462,1.853-2.522,3.356c-0.085,2.133,1.657,3.889,3.818,3.889c0.164,0,0.741,0,0.874,0h7.934 M34.826,77.534h0.36"/><path fill="#472b29" d="M44.843,78.034h-3.541c-0.276,0-0.5-0.224-0.5-0.5s0.224-0.5,0.5-0.5h3.541c1.831,0,3.32-1.453,3.32-3.239c0-1.524-1.108-2.857-2.635-3.17c-0.256-0.052-0.429-0.293-0.396-0.553c0.018-0.137,0.03-0.276,0.03-0.417c0-1.86-1.551-3.373-3.457-3.373c-1.092,0-2.098,0.491-2.759,1.348c-0.127,0.164-0.341,0.231-0.539,0.173c-0.198-0.059-0.339-0.234-0.355-0.44c-0.079-1.019-0.565-1.943-1.369-2.603c-0.828-0.68-1.884-0.984-2.973-0.853c-1.646,0.197-3.006,1.442-3.307,3.028c-0.094,0.495-0.09,0.99,0.01,1.471c0.045,0.219-0.06,0.441-0.258,0.544c-0.198,0.104-0.44,0.064-0.595-0.099c-0.428-0.452-1.009-0.7-1.635-0.7c-1.169,0-2.145,0.891-2.221,2.027c-0.01,0.145-0.082,0.279-0.198,0.366c-0.116,0.088-0.264,0.119-0.407,0.089c-0.637-0.139-1.242-0.098-1.845,0.124c-1.262,0.464-2.144,1.631-2.195,2.906c-0.035,0.875,0.283,1.708,0.895,2.344c0.635,0.661,1.496,1.025,2.423,1.025h8.808c0.276,0,0.5,0.224,0.5,0.5s-0.224,0.5-0.5,0.5h-8.808c-1.185,0-2.331-0.485-3.145-1.332c-0.802-0.835-1.218-1.928-1.172-3.077c0.067-1.674,1.212-3.203,2.849-3.805c0.611-0.225,1.242-0.306,1.88-0.245c0.344-1.396,1.629-2.424,3.136-2.424c0.493,0,0.976,0.113,1.414,0.323c0.009-0.241,0.036-0.483,0.082-0.725c0.381-2.01,2.097-3.586,4.17-3.835c1.36-0.16,2.685,0.217,3.727,1.073c0.748,0.613,1.278,1.409,1.546,2.301c0.791-0.648,1.785-1.006,2.842-1.006c2.458,0,4.457,1.961,4.457,4.373c0,0.034,0,0.068-0.001,0.103c1.764,0.555,3.003,2.188,3.003,4.038C49.164,76.132,47.226,78.034,44.843,78.034z M35.185,78.034h-0.359c-0.276,0-0.5-0.224-0.5-0.5s0.224-0.5,0.5-0.5h0.359c0.276,0,0.5,0.224,0.5,0.5S35.461,78.034,35.185,78.034z"/><path fill="#472b29" d="M43.136,72.23c-0.018,0-0.036-0.002-0.055-0.006c-0.135-0.03-0.219-0.164-0.189-0.299c0.037-0.166,0.094-0.327,0.169-0.479c0.605-1.224,2.275-1.675,3.722-1.007c0.125,0.058,0.18,0.207,0.122,0.332c-0.058,0.125-0.207,0.18-0.332,0.122c-1.201-0.555-2.577-0.209-3.063,0.774c-0.058,0.116-0.101,0.24-0.129,0.367C43.354,72.151,43.25,72.23,43.136,72.23z"/><g><path fill="#472b29" d="M37.977,78.034H36.87c-0.276,0-0.5-0.224-0.5-0.5s0.224-0.5,0.5-0.5h1.107c0.276,0,0.5,0.224,0.5,0.5S38.253,78.034,37.977,78.034z"/></g></g><g><path fill="#472b29" d="M50.9 75.626c-.05 0-.098-.024-.127-.07l-1.962-3.106c-.044-.07-.023-.163.047-.207s.163-.024.207.047l1.962 3.106c.044.07.023.163-.047.207C50.955 75.619 50.927 75.626 50.9 75.626zM51.9 75.626c-.05 0-.098-.024-.127-.07l-1.962-3.106c-.044-.07-.023-.163.047-.207.071-.044.163-.024.207.047l1.962 3.106c.044.07.023.163-.047.207C51.955 75.619 51.927 75.626 51.9 75.626zM52.9 75.626c-.05 0-.098-.024-.127-.07l-1.962-3.106c-.044-.07-.023-.163.047-.207.071-.044.162-.024.207.047l1.962 3.106c.044.07.023.163-.047.207C52.955 75.619 52.927 75.626 52.9 75.626zM53.9 75.626c-.05 0-.098-.024-.127-.07l-1.962-3.106c-.044-.07-.023-.163.047-.207.07-.044.162-.024.207.047l1.962 3.106c.044.07.023.163-.047.207C53.955 75.619 53.927 75.626 53.9 75.626zM54.9 75.626c-.05 0-.098-.024-.127-.07l-1.962-3.106c-.044-.07-.023-.163.047-.207.07-.044.163-.024.207.047l1.962 3.106c.044.07.023.163-.047.207C54.955 75.619 54.927 75.626 54.9 75.626zM55.9 75.626c-.05 0-.098-.024-.127-.07l-1.962-3.106c-.044-.07-.023-.163.047-.207.07-.044.163-.024.207.047l1.962 3.106c.044.07.023.163-.047.207C55.955 75.619 55.927 75.626 55.9 75.626zM56.9 75.626c-.05 0-.098-.024-.127-.07l-1.297-2.053c-.044-.07-.023-.163.047-.207.07-.044.163-.023.207.047l1.297 2.053c.044.07.023.163-.047.207C56.955 75.619 56.927 75.626 56.9 75.626zM57.9 75.626c-.05 0-.098-.024-.127-.07l-.814-1.289c-.044-.07-.023-.163.047-.207.071-.045.162-.023.207.047l.814 1.289c.044.07.023.163-.047.207C57.955 75.619 57.927 75.626 57.9 75.626z"/></g></g></svg>